<svg xmlns="http://www.w3.org/2000/svg" version="1.1" xmlns:xlink="http://www.w3.org/1999/xlink" xmlns:svgjs="http://svgjs.dev/svgjs" width="1440" height="560" preserveAspectRatio="none" viewBox="0 0 1440 560"><g mask="url(&quot;#SvgjsMask1855&quot;)" fill="none"><use xlink:href="#SvgjsG1863" transform="translate(0, 0)" fill="rgba(66, 68, 90, 0.19)"></use><use xlink:href="#SvgjsG1863" transform="translate(832, 0)" fill="rgba(66, 68, 90, 0.19)"></use></g><defs><mask id="SvgjsMask1855"><rect width="1440" height="560" fill="#ffffff"></rect></mask><g id="SvgjsG1862"><path d="M0.01 10.187H13.166v1.036H0.011z"></path><path d="M9.787 12.984c0-0.69-3.039-0.621-3.039 0.009v2.336c-0.03 0.322 0.203 0.637 0.526 0.637h8.14a0.585 0.585 0 0 0 0.586-0.585L16 7.986C16 3.339 12.011-0.397 7.276 0.034a0.586 0.586 0 0 0-0.53 0.636v2.517h3.041V1.404c2.907 0.78 5.042 3.434 5.044 6.58-0.01 3.144-2.134 5.81-5.042 6.585v-1.585z"></path><path d="M10.812 8.003a1.31 1.31 0 0 1 1.31-1.31c0.723 0 1.312 0.586 1.312 1.31 0 0.722-0.589 1.311-1.312 1.311-0.724 0-1.31-0.589-1.31-1.311zM9.136 6.647H4.745L0 7.373V9.312l3.452 0.001a1.099 1.099 0 0 1-0.168-0.58c0-0.611 0.498-1.109 1.108-1.108h2.405l1.949-0.407 0.109 0.517-2.003 0.418h-2.459a0.58 0.58 0 0 0-0.008 1.159H9.146c0.738-0.006 1.328-0.599 1.328-1.332a1.335 1.335 0 0 0-1.338-1.335z"></path></g><g id="SvgjsG1856"><path d="M12.59 14.197a0.759 0.759 0 0 1-0.759 0.759 0.758 0.758 0 0 1-0.759-0.759v-0.663h1.518v0.663zM10.588 16H8.429l0.003-1.065h-0.723L7.707 16H5.545V13.534h5.043zM5.043 14.197a0.758 0.758 0 0 1-0.759 0.759 0.759 0.759 0 0 1-0.759-0.759v-0.663h1.518v0.663zM8.058 0c1.083 0 1.961 0.878 1.961 1.962 0 1.083-0.878 1.961-1.961 1.961-1.084 0-1.962-0.878-1.962-1.961C6.097 0.878 6.974 0 8.058 0z m5.578 12.77H2.48V6.25h11.156v6.52zM11.894 6.789h-7.629v5.451h7.629V6.789z"></path><path d="M8.429 10.011v0.479h1.397c0.058 0 0.144 0.052 0.144 0.142 0 0.815-0.102 1.199-0.532 1.199-0.445 0-0.537-0.964-1.01-1.027v0.922h-0.746V10.802c-0.496 0.038-0.576 1.029-1.038 1.029-0.429 0-0.508-0.384-0.509-1.199 0-0.09 0.086-0.142 0.144-0.142h1.403V10.011h-1.453a0.151 0.151 0 0 1 0-0.301h1.453v-0.478H6.047a0.151 0.151 0 0 1-0.151-0.152c0-0.083 0.068-0.151 0.151-0.151h1.635V8.451h-1.534a0.151 0.151 0 0 1-0.152-0.151c0-0.083 0.068-0.152 0.151-0.152h1.535V7.67H6.48a0.151 0.151 0 0 1-0.151-0.15c0-0.084 0.067-0.152 0.151-0.153h1.202v-0.264h0.747v0.264h1.202a0.152 0.152 0 0 1 0 0.303H8.429v0.478h1.539c0.084 0 0.152 0.069 0.152 0.152a0.151 0.151 0 0 1-0.152 0.151H8.429v0.478h1.64a0.152 0.152 0 0 1 0.151 0.151 0.151 0.151 0 0 1-0.151 0.152H8.429v0.478h1.453a0.151 0.151 0 0 1 0 0.301h-1.453z m1.915-5.609h-4.506c-0.815 0-1.57 0.435-1.994 1.084H12.272c-0.397-0.649-1.114-1.084-1.928-1.084z"></path></g><g id="SvgjsG1860"><path d="M0.004 9.454h10.114v0.948H0.004zM7.942 7.461a1.2 1.2 0 0 1 1.2-1.2c0.661 0 1.2 0.537 1.2 1.2 0 0.661-0.539 1.2-1.2 1.2-0.662 0-1.2-0.539-1.2-1.2z m-1.534-1.242H2.389L0 6.585V8.659l1.206 0.001a1.006 1.006 0 0 1-0.154-0.53 1.016 1.016 0 0 1 1.015-1.015h2.201l1.784-0.373 0.099 0.474-1.833 0.383H2.067a0.531 0.531 0 0 0-0.531 0.531 0.53 0.53 0 0 0 0.524 0.53l4.358 0c0.674-0.005 1.214-0.548 1.214-1.219a1.222 1.222 0 0 0-1.224-1.222z"></path><path d="M8.488 12.947c2.681 0 4.854-2.173 4.853-4.855 0-2.681-2.173-4.854-4.853-4.854-1.752 0-3.284 0.933-4.138 2.326h2.033a3.285 3.285 0 0 1 2.117-0.77c1.822 0 3.299 1.477 3.299 3.299 0 1.822-1.477 3.299-3.299 3.299a3.282 3.282 0 0 1-1.439-0.334H4.651c0.888 1.147 2.274 1.889 3.836 1.889z"></path><path d="M8.488 0.56C5.166 0.56 2.35 2.717 1.358 5.706l0.926-0.144 1.502 0.001C4.688 3.89 6.455 2.754 8.488 2.754c2.949 0 5.339 2.39 5.338 5.339S11.436 13.432 8.488 13.432c-1.851 0-3.482-0.943-4.44-2.375H1.594c1.154 2.663 3.806 4.528 6.893 4.528 4.149 0 7.513-3.363 7.513-7.513C16 3.924 12.636 0.56 8.488 0.56zM10.192 2.268a0.238 0.238 0 0 1-0.288 0.174 5.833 5.833 0 0 0-2.808 0c-0.127 0.034-0.257-0.046-0.289-0.173a0.238 0.238 0 0 1 0.174-0.289 6.3 6.3 0 0 1 3.038 0 0.238 0.238 0 0 1 0.173 0.288z"></path></g><g id="SvgjsG1859"><path d="M13.82 13.722c0.417-0.509 0.563-1.217 0.321-1.881l-0.22-0.607h1.332V0H0.8v11.234h7.773l0.847 2.326a1.922 1.922 0 0 0 1.455 1.234l0.399 1.206 3.335 0-0.789-2.278z m-1.212-6.07c-0.712 0.259-1.08 1.048-0.821 1.762l0.514 1.402H1.218V0.419h13.618v10.396h-1.07l-1.158-3.163z"></path><path d="M8.649 6.424v0.802H10.992c0.098 0 0.241 0.087 0.241 0.241 0 1.365-0.172 2.01-0.891 2.01-0.748 0-0.901-1.619-1.693-1.724v1.547h-1.253V7.75c-0.832 0.062-0.966 1.726-1.742 1.727-0.719 0-0.852-0.645-0.852-2.01 0-0.153 0.143-0.241 0.241-0.241h2.353v-0.802H4.96c-0.14 0-0.254-0.113-0.255-0.253s0.114-0.253 0.255-0.253h2.436V5.115h-2.742a0.254 0.254 0 0 1 0-0.507h2.742v-0.802h-2.574c-0.139 0-0.253-0.114-0.253-0.254 0-0.14 0.114-0.254 0.253-0.254h2.574V2.496h-2.016a0.254 0.254 0 0 1 0-0.508h2.016v-0.443h1.253v0.443h2.016c0.14 0 0.254 0.115 0.254 0.255S10.805 2.496 10.665 2.496h-2.016v0.802H11.23a0.254 0.254 0 0 1 0 0.508H8.649v0.802h2.75a0.254 0.254 0 0 1 0 0.507h-2.75v0.802h2.437a0.253 0.253 0 0 1 0 0.507h-2.437z"></path></g><g id="SvgjsG1857"><path d="M2.325 8.986a1.069 1.069 0 0 1 1.071-1.07 1.07 1.07 0 0 1 0 2.14 1.07 1.07 0 0 1-1.071-1.07m10.341-0.655c0.471 0 0.851 0.369 0.856 0.837l0.001 2.257H4.93V8.333l7.737-0.002zM3.941 11.424a0.527 0.527 0 0 0 0.527-0.527 0.527 0.527 0 0 0-0.527-0.527H2.418a0.526 0.526 0 0 0-0.526 0.527 0.526 0.526 0 0 0 0.526 0.526h1.523z"></path><path d="M14.033 13.645V16h1.394V8.531a0.696 0.696 0 0 0-0.695-0.696 0.698 0.698 0 0 0-0.699 0.696v3.428H1.512V7.123c0-0.384-0.336-0.697-0.721-0.698C0.406 6.426 0.104 6.738 0.104 7.123V16h1.407V13.645h12.522zM9.614 0c0.446 0 1.177 0.187 1.583 0.632L10.65 1.685a1.305 1.305 0 0 0-1.036-0.509 1.303 1.303 0 0 0-1.027 0.499l-0.559-1.019C8.499 0.185 9.149 0 9.614 0M9.456 1.06h0.312V0.748h0.313V0.436h-0.313V0.123H9.456v0.313h-0.313v0.312H9.456v0.312z"></path><path d="M10.617 2.552a1.006 1.006 0 0 1-1.006 1.006 1.005 1.005 0 0 1-1.004-1.006c0-0.556 0.45-1.005 1.004-1.005s1.006 0.45 1.006 1.005M8.645 3.844c-0.703 0.004-1.11 0.574-1.202 0.897l-0.857 2.81h0.867l0.631-2.157h0.449L7.904 7.551h3.41L10.69 5.395h0.448l0.649 2.157h0.854L11.781 4.741c-0.091-0.318-0.49-0.878-1.178-0.895l-1.958-0.002z m-6.408 0.647C1.003 4.491 0 3.487 0 2.253 0 1.019 1.003 0.015 2.237 0.015S4.475 1.019 4.475 2.253c0 1.235-1.005 2.238-2.238 2.238m0-0.554c0.928 0 1.685-0.755 1.685-1.685 0-0.928-0.757-1.684-1.685-1.684-0.928 0-1.683 0.756-1.683 1.684 0 0.93 0.755 1.684 1.683 1.685"></path><path d="M2.248 2.548a0.166 0.166 0 0 1-0.16-0.012 0.168 0.168 0 0 1-0.076-0.116L2.01 1.12a0.168 0.168 0 0 1 0.337 0v1.009l0.863-0.406a0.167 0.167 0 0 1 0.224 0.079c0.04 0.085 0.003 0.185-0.08 0.225l-1.105 0.521z"></path></g><g id="SvgjsG1858"><path d="M8.655 0C5.901 0 3.36 2.069 2.833 4.347 2.715 4.854 2.582 6.177 2.582 6.177L1.318 9.37A0.469 0.469 0 0 0 1.28 9.561a0.488 0.488 0 0 0 0.489 0.488h0.814v1.697c0 1.324 1.07 2.396 2.392 2.396h0.952V16h3.535v-0.829h1.44V16h1.503V10.847c1.413-1.111 2.322-2.838 2.322-4.774C14.726 2.718 12.01 0 8.655 0zM4.077 7.387a0.682 0.682 0 0 1-0.682-0.682c0-0.375 0.306-0.68 0.682-0.68a0.681 0.681 0 0 1 0.679 0.68c0 0.377-0.306 0.682-0.68 0.682z m5.385 4.46h1.44v0.779h-1.44v-0.779z m0-1.108h1.44v0.778h-1.44V10.739z m0 2.215h1.44v0.78h-1.44v-0.78z m0 1.109h1.44v0.78h-1.44V14.062z m0-4.431h1.448c-0.003 0.057-0.009 0.113-0.009 0.172v0.607h-1.44V9.632z m3.986-4.488a1.557 1.557 0 0 1-0.427 1.071c-0.045 0.592-0.42 1.091-0.942 1.316v0.005c-0.637 0.372-1.019 1.005-1.135 1.766H10.354v-1.765c0.004-0.55 0.177-0.902 0.539-1.119a1.907 1.907 0 0 0 0.356-0.26 1.229 1.229 0 0 1 0.659 0.556c0.032 0.053 0.088 0.083 0.144 0.082 0.027 0 0.055-0.007 0.08-0.021a0.163 0.163 0 0 0 0.064-0.224h-0.001a1.563 1.563 0 0 0-0.721-0.657c0.15-0.231 0.234-0.506 0.23-0.837 0-0.002 0.002-0.003 0.003-0.006 0-0.149-0.022-0.294-0.062-0.431a1.572 1.572 0 0 0 0.871-0.486 0.164 0.164 0 0 0-0.011-0.234 0.164 0.164 0 0 0-0.232 0.011 1.248 1.248 0 0 1-0.755 0.396c-0.24-0.444-0.686-0.76-1.209-0.818a1.235 1.235 0 0 1 0.353-0.724 0.166 0.166 0 0 0 0-0.233 0.166 0.166 0 0 0-0.234 0 1.572 1.572 0 0 0-0.45 0.937 1.244 1.244 0 0 1-1.088-1.234c0-0.09-0.075-0.165-0.163-0.165-0.093 0-0.166 0.075-0.167 0.165 0 0.107 0.01 0.21 0.031 0.31a1.24 1.24 0 0 1-1.235 0.229s-0.002 0-0.003-0.001a1.225 1.225 0 0 1-0.453-0.289c-0.063-0.064-0.168-0.064-0.233 0-0.065 0.064-0.065 0.168 0 0.233a1.59 1.59 0 0 0 0.452 0.316c-0.033 0.411-0.271 0.764-0.605 0.963a1.578 1.578 0 0 0-0.84-0.639 0.166 0.166 0 0 0-0.209 0.107c-0.024 0.087 0.02 0.179 0.108 0.207a1.247 1.247 0 0 1 0.63 0.455 1.221 1.221 0 0 1-0.32 0.042h-0.02a1.568 1.568 0 0 0-1.096 0.444 0.161 0.161 0 0 0-0.003 0.233 0.162 0.162 0 0 0 0.231 0.003 1.236 1.236 0 0 1 0.868-0.35h0.019c0.794 0 1.453-0.591 1.557-1.358 0.113 0.024 0.226 0.038 0.34 0.038A1.574 1.574 0 0 0 8.699 2.88a1.558 1.558 0 0 0 0.45 0.583 1.556 1.556 0 0 0-0.341 0.82 1.622 1.622 0 0 0-0.256-0.021 1.557 1.557 0 0 0-0.736 0.185c-0.08 0.043-0.111 0.142-0.068 0.224 0.03 0.055 0.088 0.087 0.147 0.087a0.144 0.144 0 0 0 0.075-0.02 1.25 1.25 0 0 1 0.583-0.146c0.087 0 0.173 0.01 0.256 0.027a1.576 1.576 0 0 0 0.428 0.92c0.033 0.034 0.076 0.051 0.118 0.051 0.04 0 0.082-0.015 0.115-0.046 0.067-0.063 0.069-0.167 0.005-0.232h-0.001a1.253 1.253 0 0 1-0.345-0.829c0-0.004 0.001-0.008 0-0.013v-0.018a1.237 1.237 0 0 1 0.299-0.81 1.57 1.57 0 0 0 0.701 0.166s0.001 0 0.003 0h0.003a1.244 1.244 0 0 1 1.241 1.24 1.566 1.566 0 0 0-0.401-0.052c-0.196 0-0.395 0.036-0.587 0.114a0.164 0.164 0 0 0-0.091 0.215c0.035 0.084 0.129 0.125 0.214 0.09a1.247 1.247 0 0 1 0.464-0.091c0.124 0 0.248 0.019 0.363 0.055a0.953 0.953 0 0 1-0.242 0.464 0.14 0.14 0 0 0-0.025 0.029c-0.094 0.092-0.207 0.177-0.346 0.262-0.477 0.278-0.706 0.784-0.701 1.403V9.301h-0.563V7.624c0-0.616-0.386-1.201-0.873-1.409-0.232-0.09-0.474-0.241-0.65-0.438a1.558 1.558 0 0 1-0.878 0.271 1.555 1.555 0 0 1-0.877-0.269 1.581 1.581 0 0 1-0.87 0.26c-0.883 0-1.596-0.715-1.597-1.597 0-0.659 0.398-1.224 0.969-1.467 0.154-0.703 0.777-1.229 1.527-1.23 0.04 0 0.076 0.003 0.113 0.006a1.567 1.567 0 0 1 1.295-0.684c0.266 0 0.516 0.066 0.736 0.185a1.558 1.558 0 0 1 1.925 0.158 1.553 1.553 0 0 1 0.365-0.044c0.633 0 1.18 0.381 1.424 0.926 0.642 0.195 1.11 0.79 1.11 1.496a1.576 1.576 0 0 1-0.054 0.408 1.561 1.561 0 0 1 0.321 0.948z"></path></g><g id="SvgjsG1861"><path d="M0.608 0.571a0.105 0.105 0 0 1 0.042-0.142L1.412 0.013a0.104 0.104 0 0 1 0.143 0.042l0.305 0.558c1.157-0.347 2.439 0.146 3.041 1.249l-1.478 0.807c0.244 0.447 0.079 1.009-0.369 1.254a0.926 0.926 0 0 1-1.255-0.368L0.32 4.361C-0.283 3.259-0.006 1.915 0.914 1.13L0.608 0.571z m10.416 10.055H16V15.77H11.024z m-0.57 2.571H6.435c-0.7 0-1.27-0.569-1.27-1.269 0-0.702 0.57-1.27 1.27-1.27h4.019v2.539z m-8.664 1.03a0.515 0.515 0 0 1 0.514-0.514h8.15V15.77h-8.664v-1.543z"></path><path d="M1.81 11.665a1.535 1.532 0 1 0 3.07 0 1.535 1.532 0 1 0-3.07 0"></path><path d="M13.27 7.373l-0.863-2.458c-0.167-0.463-0.489-0.825-1.397-0.825H7.024c-0.908 0-1.23 0.362-1.397 0.825l-0.863 2.458c-0.064 0.159-0.098 0.516 0.254 0.754l2.03 1.337a0.642 0.642 0 1 0 0.708-1.072l-0.976-0.643-0.635-0.419 0.453-1.251h0.628l-0.368 1.015 1.223 0.806a1.222 1.222 0 0 1 0.529 0.781 1.222 1.222 0 0 1-0.178 0.927 1.24 1.24 0 0 1-0.261 0.282H9.864a1.26 1.26 0 0 1-0.261-0.282 1.226 1.226 0 0 1-0.179-0.927 1.225 1.225 0 0 1 0.529-0.781l1.224-0.806-0.369-1.014h0.628l0.454 1.25-0.635 0.42-0.976 0.642c-0.296 0.195-0.379 0.595-0.183 0.891s0.595 0.378 0.892 0.182l2.029-1.337c0.351-0.239 0.318-0.596 0.254-0.755zM9.414 1.684a0.607 0.607 0 0 1-0.551 0.352 0.608 0.608 0 0 1-0.552-0.352h-1.112a1.688 1.688 0 0 0-0.029 0.3c0 0.937 0.761 1.696 1.699 1.696 0.938 0 1.699-0.759 1.699-1.696 0-0.103-0.011-0.203-0.029-0.3h-1.125zM8.273 1.283a0.608 0.608 0 0 1 0.59-0.459A0.607 0.607 0 0 1 9.451 1.283h0.963c-0.267-0.587-0.858-0.996-1.545-0.996-0.687 0-1.278 0.409-1.546 0.996h0.95z"></path></g><g id="SvgjsG1863"><use xlink:href="#SvgjsG1856" transform="translate(0, 0) scale(1.3)" fill="rgba(66, 68, 90, 0.19)"></use><use xlink:href="#SvgjsG1857" transform="translate(0, 83.2) scale(1.3)" fill="rgba(66, 68, 90, 0.19)"></use><use xlink:href="#SvgjsG1856" transform="translate(0, 166.4) scale(1.3)" fill="rgba(66, 68, 90, 0.19)"></use><use xlink:href="#SvgjsG1858" transform="translate(0, 249.60000000000002) scale(1.3)" fill="rgba(66, 68, 90, 0.19)"></use><use xlink:href="#SvgjsG1859" transform="translate(0, 332.8) scale(1.3)" fill="rgba(66, 68, 90, 0.19)"></use><use xlink:href="#SvgjsG1856" transform="translate(0, 416) scale(1.3)" fill="rgba(66, 68, 90, 0.19)"></use><use xlink:href="#SvgjsG1857" transform="translate(0, 499.20000000000005) scale(1.3)" fill="rgba(66, 68, 90, 0.19)"></use><use xlink:href="#SvgjsG1857" transform="translate(83.2, 0) scale(1.3)" fill="rgba(66, 68, 90, 0.19)"></use><use xlink:href="#SvgjsG1856" transform="translate(83.2, 83.2) scale(1.3)" fill="rgba(66, 68, 90, 0.19)"></use><use xlink:href="#SvgjsG1857" transform="translate(83.2, 166.4) scale(1.3)" fill="rgba(66, 68, 90, 0.19)"></use><use xlink:href="#SvgjsG1860" transform="translate(83.2, 249.60000000000002) scale(1.3)" fill="rgba(66, 68, 90, 0.19)"></use><use xlink:href="#SvgjsG1860" transform="translate(83.2, 332.8) scale(1.3)" fill="rgba(66, 68, 90, 0.19)"></use><use xlink:href="#SvgjsG1856" transform="translate(83.2, 416) scale(1.3)" fill="rgba(66, 68, 90, 0.19)"></use><use xlink:href="#SvgjsG1861" transform="translate(83.2, 499.20000000000005) scale(1.3)" fill="rgba(66, 68, 90, 0.19)"></use><use xlink:href="#SvgjsG1862" transform="translate(166.4, 0) scale(1.3)" fill="rgba(66, 68, 90, 0.19)"></use><use xlink:href="#SvgjsG1860" transform="translate(166.4, 83.2) scale(1.3)" fill="rgba(66, 68, 90, 0.19)"></use><use xlink:href="#SvgjsG1859" transform="translate(166.4, 166.4) scale(1.3)" fill="rgba(66, 68, 90, 0.19)"></use><use xlink:href="#SvgjsG1861" transform="translate(166.4, 249.60000000000002) scale(1.3)" fill="rgba(66, 68, 90, 0.19)"></use><use xlink:href="#SvgjsG1859" transform="translate(166.4, 332.8) scale(1.3)" fill="rgba(66, 68, 90, 0.19)"></use><use xlink:href="#SvgjsG1862" transform="translate(166.4, 416) scale(1.3)" fill="rgba(66, 68, 90, 0.19)"></use><use xlink:href="#SvgjsG1862" transform="translate(166.4, 499.20000000000005) scale(1.3)" fill="rgba(66, 68, 90, 0.19)"></use><use xlink:href="#SvgjsG1861" transform="translate(249.60000000000002, 0) scale(1.3)" fill="rgba(66, 68, 90, 0.19)"></use><use xlink:href="#SvgjsG1862" transform="translate(249.60000000000002, 83.2) scale(1.3)" fill="rgba(66, 68, 90, 0.19)"></use><use xlink:href="#SvgjsG1859" transform="translate(249.60000000000002, 166.4) scale(1.3)" fill="rgba(66, 68, 90, 0.19)"></use><use xlink:href="#SvgjsG1861" transform="translate(249.60000000000002, 249.60000000000002) scale(1.3)" fill="rgba(66, 68, 90, 0.19)"></use><use xlink:href="#SvgjsG1856" transform="translate(249.60000000000002, 332.8) scale(1.3)" fill="rgba(66, 68, 90, 0.19)"></use><use xlink:href="#SvgjsG1858" transform="translate(249.60000000000002, 416) scale(1.3)" fill="rgba(66, 68, 90, 0.19)"></use><use xlink:href="#SvgjsG1862" transform="translate(249.60000000000002, 499.20000000000005) scale(1.3)" fill="rgba(66, 68, 90, 0.19)"></use><use xlink:href="#SvgjsG1857" transform="translate(332.8, 0) scale(1.3)" fill="rgba(66, 68, 90, 0.19)"></use><use xlink:href="#SvgjsG1860" transform="translate(332.8, 83.2) scale(1.3)" fill="rgba(66, 68, 90, 0.19)"></use><use xlink:href="#SvgjsG1857" transform="translate(332.8, 166.4) scale(1.3)" fill="rgba(66, 68, 90, 0.19)"></use><use xlink:href="#SvgjsG1856" transform="translate(332.8, 249.60000000000002) scale(1.3)" fill="rgba(66, 68, 90, 0.19)"></use><use xlink:href="#SvgjsG1858" transform="translate(332.8, 332.8) scale(1.3)" fill="rgba(66, 68, 90, 0.19)"></use><use xlink:href="#SvgjsG1858" transform="translate(332.8, 416) scale(1.3)" fill="rgba(66, 68, 90, 0.19)"></use><use xlink:href="#SvgjsG1860" transform="translate(332.8, 499.20000000000005) scale(1.3)" fill="rgba(66, 68, 90, 0.19)"></use><use xlink:href="#SvgjsG1858" transform="translate(416, 0) scale(1.3)" fill="rgba(66, 68, 90, 0.19)"></use><use xlink:href="#SvgjsG1861" transform="translate(416, 83.2) scale(1.3)" fill="rgba(66, 68, 90, 0.19)"></use><use xlink:href="#SvgjsG1857" transform="translate(416, 166.4) scale(1.3)" fill="rgba(66, 68, 90, 0.19)"></use><use xlink:href="#SvgjsG1860" transform="translate(416, 249.60000000000002) scale(1.3)" fill="rgba(66, 68, 90, 0.19)"></use><use xlink:href="#SvgjsG1858" transform="translate(416, 332.8) scale(1.3)" fill="rgba(66, 68, 90, 0.19)"></use><use xlink:href="#SvgjsG1856" transform="translate(416, 416) scale(1.3)" fill="rgba(66, 68, 90, 0.19)"></use><use xlink:href="#SvgjsG1858" transform="translate(416, 499.20000000000005) scale(1.3)" fill="rgba(66, 68, 90, 0.19)"></use><use xlink:href="#SvgjsG1860" transform="translate(499.20000000000005, 0) scale(1.3)" fill="rgba(66, 68, 90, 0.19)"></use><use xlink:href="#SvgjsG1860" transform="translate(499.20000000000005, 83.2) scale(1.3)" fill="rgba(66, 68, 90, 0.19)"></use><use xlink:href="#SvgjsG1857" transform="translate(499.20000000000005, 166.4) scale(1.3)" fill="rgba(66, 68, 90, 0.19)"></use><use xlink:href="#SvgjsG1861" transform="translate(499.20000000000005, 249.60000000000002) scale(1.3)" fill="rgba(66, 68, 90, 0.19)"></use><use xlink:href="#SvgjsG1859" transform="translate(499.20000000000005, 332.8) scale(1.3)" fill="rgba(66, 68, 90, 0.19)"></use><use xlink:href="#SvgjsG1862" transform="translate(499.20000000000005, 416) scale(1.3)" fill="rgba(66, 68, 90, 0.19)"></use><use xlink:href="#SvgjsG1856" transform="translate(499.20000000000005, 499.20000000000005) scale(1.3)" fill="rgba(66, 68, 90, 0.19)"></use><use xlink:href="#SvgjsG1861" transform="translate(582.4, 0) scale(1.3)" fill="rgba(66, 68, 90, 0.19)"></use><use xlink:href="#SvgjsG1858" transform="translate(582.4, 83.2) scale(1.3)" fill="rgba(66, 68, 90, 0.19)"></use><use xlink:href="#SvgjsG1857" transform="translate(582.4, 166.4) scale(1.3)" fill="rgba(66, 68, 90, 0.19)"></use><use xlink:href="#SvgjsG1858" transform="translate(582.4, 249.60000000000002) scale(1.3)" fill="rgba(66, 68, 90, 0.19)"></use><use xlink:href="#SvgjsG1858" transform="translate(582.4, 332.8) scale(1.3)" fill="rgba(66, 68, 90, 0.19)"></use><use xlink:href="#SvgjsG1862" transform="translate(582.4, 416) scale(1.3)" fill="rgba(66, 68, 90, 0.19)"></use><use xlink:href="#SvgjsG1856" transform="translate(582.4, 499.20000000000005) scale(1.3)" fill="rgba(66, 68, 90, 0.19)"></use><use xlink:href="#SvgjsG1856" transform="translate(665.6, 0) scale(1.3)" fill="rgba(66, 68, 90, 0.19)"></use><use xlink:href="#SvgjsG1858" transform="translate(665.6, 83.2) scale(1.3)" fill="rgba(66, 68, 90, 0.19)"></use><use xlink:href="#SvgjsG1858" transform="translate(665.6, 166.4) scale(1.3)" fill="rgba(66, 68, 90, 0.19)"></use><use xlink:href="#SvgjsG1861" transform="translate(665.6, 249.60000000000002) scale(1.3)" fill="rgba(66, 68, 90, 0.19)"></use><use xlink:href="#SvgjsG1856" transform="translate(665.6, 332.8) scale(1.3)" fill="rgba(66, 68, 90, 0.19)"></use><use xlink:href="#SvgjsG1859" transform="translate(665.6, 416) scale(1.3)" fill="rgba(66, 68, 90, 0.19)"></use><use xlink:href="#SvgjsG1861" transform="translate(665.6, 499.20000000000005) scale(1.3)" fill="rgba(66, 68, 90, 0.19)"></use><use xlink:href="#SvgjsG1859" transform="translate(748.8000000000001, 0) scale(1.3)" fill="rgba(66, 68, 90, 0.19)"></use><use xlink:href="#SvgjsG1860" transform="translate(748.8000000000001, 83.2) scale(1.3)" fill="rgba(66, 68, 90, 0.19)"></use><use xlink:href="#SvgjsG1859" transform="translate(748.8000000000001, 166.4) scale(1.3)" fill="rgba(66, 68, 90, 0.19)"></use><use xlink:href="#SvgjsG1856" transform="translate(748.8000000000001, 249.60000000000002) scale(1.3)" fill="rgba(66, 68, 90, 0.19)"></use><use xlink:href="#SvgjsG1857" transform="translate(748.8000000000001, 332.8) scale(1.3)" fill="rgba(66, 68, 90, 0.19)"></use><use xlink:href="#SvgjsG1860" transform="translate(748.8000000000001, 416) scale(1.3)" fill="rgba(66, 68, 90, 0.19)"></use><use xlink:href="#SvgjsG1860" transform="translate(748.8000000000001, 499.20000000000005) scale(1.3)" fill="rgba(66, 68, 90, 0.19)"></use></g></defs></svg>